HIERARCHY
ROOT hip
{
  OFFSET 0 0 0
  CHANNELS 6 Xposition Yposition Zposition Zrotation Yrotation Xrotation
  JOINT abdomen
  {
    OFFSET 0 20.6881 -0.73152
    CHANNELS 3 Zrotation Xrotation Yrotation
    JOINT chest
    {
      OFFSET 0 11.7043 -0.48768
      CHANNELS 3 Zrotation Xrotation Yrotation
      JOINT neck
      {
        OFFSET 0 22.1894 -2.19456
        CHANNELS 3 Zrotation Xrotation Yrotation
        JOINT head
        {
          OFFSET -0.24384 7.07133 1.2192
          CHANNELS 3 Zrotation Xrotation Yrotation
          JOINT leftEye
          {
            OFFSET 4.14528 8.04674 8.04672
            CHANNELS 3 Zrotation Xrotation Yrotation
            End Site
            {
              OFFSET 1 0 0
            }
          }
          JOINT rightEye
          {
            OFFSET -3.6576 8.04674 8.04672
            CHANNELS 3 Zrotation Xrotation Yrotation
            End Site
            {
              OFFSET 1 0 0
            }
          }
        }
      }
      JOINT rCollar
      {
        OFFSET -2.68224 19.2634 -4.8768
        CHANNELS 3 Zrotation Xrotation Yrotation
        JOINT rShldr
        {
          OFFSET -8.77824 -1.95073 1.46304
          CHANNELS 3 Zrotation Xrotation Yrotation
          JOINT rForeArm
          {
            OFFSET -28.1742 -1.7115 0.48768
            CHANNELS 3 Zrotation Xrotation Yrotation
            JOINT rHand
            {
              OFFSET -22.5879 0.773209 7.07136
              CHANNELS 3 Zrotation Xrotation Yrotation
              JOINT rThumb1
              {
                OFFSET -1.2192 -0.487915 3.41376
                CHANNELS 3 Zrotation Xrotation Yrotation
                JOINT rThumb2
                {
                  OFFSET -3.37035 -0.52449 3.41376
                  CHANNELS 3 Zrotation Xrotation Yrotation
                  End Site
                  {
                    OFFSET -1.78271 -1.18214 1.43049
                  }
                }
              }
              JOINT rIndex1
              {
                OFFSET -7.75947 0.938293 5.60832
                CHANNELS 3 Zrotation Xrotation Yrotation
                JOINT rIndex2
                {
                  OFFSET -2.54057 -0.884171 1.56538
                  CHANNELS 3 Zrotation Xrotation Yrotation
                  End Site
                  {
                    OFFSET -1.62519 -0.234802 1.16502
                  }
                }
              }
              JOINT rMid1
              {
                OFFSET -8.24714 1.18213 3.41376
                CHANNELS 3 Zrotation Xrotation Yrotation
                JOINT rMid2
                {
                  OFFSET -3.10165 -0.590103 1.0647
                  CHANNELS 3 Zrotation Xrotation Yrotation
                  End Site
                  {
                    OFFSET -2.48547 -0.328903 0.83742
                  }
                }
              }
              JOINT rRing1
              {
                OFFSET -8.82822 0.546677 1.51678
                CHANNELS 3 Zrotation Xrotation Yrotation
                JOINT rRing2
                {
                  OFFSET -2.60934 -0.819778 -0.0198488
                  CHANNELS 3 Zrotation Xrotation Yrotation
                  End Site
                  {
                    OFFSET -2.33842 -0.294052 0.168128
                  }
                }
              }
              JOINT rPinky1
              {
                OFFSET -8.27202 -0.0477905 -0.4584
                CHANNELS 3 Zrotation Xrotation Yrotation
                JOINT rPinky2
                {
                  OFFSET -1.82734 -0.647385 -0.700984
                  CHANNELS 3 Zrotation Xrotation Yrotation
                  End Site
                  {
                    OFFSET -1.69225 -0.51767 -0.607171
                  }
                }
              }
            }
          }
        }
      }
      JOINT lCollar
      {
        OFFSET 2.68224 19.2634 -4.8768
        CHANNELS 3 Zrotation Xrotation Yrotation
        JOINT lShldr
        {
          OFFSET 8.77824 -1.95073 1.46304
          CHANNELS 3 Zrotation Xrotation Yrotation
          JOINT lForeArm
          {
            OFFSET 28.1742 -1.7115 0.48768
            CHANNELS 3 Zrotation Xrotation Yrotation
            JOINT lHand
            {
              OFFSET 22.5879 0.773209 7.07136
              CHANNELS 3 Zrotation Xrotation Yrotation
              JOINT lThumb1
              {
                OFFSET 1.2192 -0.487915 3.41376
                CHANNELS 3 Zrotation Xrotation Yrotation
                JOINT lThumb2
                {
                  OFFSET 3.37035 -0.52449 3.41376
                  CHANNELS 3 Zrotation Xrotation Yrotation
                  End Site
                  {
                    OFFSET 1.78271 -1.18214 1.43049
                  }
                }
              }
              JOINT lIndex1
              {
                OFFSET 7.75947 0.938293 5.60832
                CHANNELS 3 Zrotation Xrotation Yrotation
                JOINT lIndex2
                {
                  OFFSET 2.54057 -0.884171 1.56538
                  CHANNELS 3 Zrotation Xrotation Yrotation
                  End Site
                  {
                    OFFSET 1.62519 -0.234802 1.16502
                  }
                }
              }
              JOINT lMid1
              {
                OFFSET 8.24714 1.18213 3.41376
                CHANNELS 3 Zrotation Xrotation Yrotation
                JOINT lMid2
                {
                  OFFSET 3.10165 -0.590103 1.0647
                  CHANNELS 3 Zrotation Xrotation Yrotation
                  End Site
                  {
                    OFFSET 2.48547 -0.328903 0.83742
                  }
                }
              }
              JOINT lRing1
              {
                OFFSET 8.82822 0.546677 1.51678
                CHANNELS 3 Zrotation Xrotation Yrotation
                JOINT lRing2
                {
                  OFFSET 2.60934 -0.819778 -0.0198488
                  CHANNELS 3 Zrotation Xrotation Yrotation
                  End Site
                  {
                    OFFSET 2.33842 -0.294052 0.168128
                  }
                }
              }
              JOINT lPinky1
              {
                OFFSET 8.27202 -0.0477905 -0.4584
                CHANNELS 3 Zrotation Xrotation Yrotation
                JOINT lPinky2
                {
                  OFFSET 1.82734 -0.647385 -0.700984
                  CHANNELS 3 Zrotation Xrotation Yrotation
                  End Site
                  {
                    OFFSET 1.69225 -0.51767 -0.607171
                  }
                }
              }
            }
          }
        }
      }
    }
  }
  JOINT rButtock
  {
    OFFSET -8.77824 4.35084 1.2192
    CHANNELS 3 Zrotation Xrotation Yrotation
    JOINT rThigh
    {
      OFFSET 0 -1.70687 -2.19456
      CHANNELS 3 Zrotation Xrotation Yrotation
      JOINT rShin
      {
        OFFSET 0 -36.8199 0.73152
        CHANNELS 3 Zrotation Xrotation Yrotation
        JOINT rFoot
        {
          OFFSET 0.73152 -45.1104 -5.12064
          CHANNELS 3 Zrotation Xrotation Yrotation
          End Site
          {
            OFFSET -1.1221 -3.69964 12.103
          }
        }
      }
    }
  }
  JOINT lButtock
  {
    OFFSET 8.77824 4.35084 1.2192
    CHANNELS 3 Zrotation Xrotation Yrotation
    JOINT lThigh
    {
      OFFSET 0 -1.70687 -2.19456
      CHANNELS 3 Zrotation Xrotation Yrotation
      JOINT lShin
      {
        OFFSET 0 -36.8199 0.73152
        CHANNELS 3 Zrotation Xrotation Yrotation
        JOINT lFoot
        {
          OFFSET -0.73152 -45.1104 -5.12064
          CHANNELS 3 Zrotation Xrotation Yrotation
          End Site
          {
            OFFSET 1.1221 -3.69964 12.103
          }
        }
      }
    }
  }
}
MOTION
Frames:	4
Frame Time:	0.03333
-15.514700000000001 47.2334 -114.90900000000002 -145.428 74.321 -136.21300000000002 4.66064 20.9896 -6.78452 9.47658 -11.8285 -0.613818 -7.86238 24.7716 -20.0297 23.6645 -32.3687 -33.7015 -0.0 0.0 0.0 -0.0 0.0 0.0 1.87775e-13 3.12568e-11 -6.30159e-14 52.4431 23.645400000000002 -1.32549 -26.9261 -44.2107 91.8636 -0.03511759999999999 -5.33422 -0.751879 1.9760500000000004e-09 1.03757e-09 -6.16642e-09 3.42838e-09 1.7956099999999998e-09 -1.06447e-08 1.9760500000000004e-09 1.03757e-09 -6.16642e-09 7.730909999999999 5.47488 0.417314 1.9760500000000004e-09 1.03757e-09 -6.16641e-09 2.90554 0.965183 0.102902 1.97606e-09 1.03757e-09 -6.16642e-09 10.278600000000003 0.731801 0.0259123 1.9760500000000004e-09 1.03758e-09 -6.1664e-09 2.22167 -0.733487 -0.20892000000000002 1.87614e-13 3.12559e-11 -6.31953e-14 -76.7124 57.2737 1.23989 27.3633 -42.9577 -89.4073 1.2879 -30.421100000000003 4.73377 4.13427e-09 -6.05111e-09 8.67056e-09 6.937159999999998e-09 -1.0501600000000002e-08 1.50719e-08 4.13427e-09 -6.0511e-09 8.67057e-09 -7.730909999999999 5.47488 -0.417314 4.13428e-09 -6.05111e-09 8.67056e-09 -2.90554 0.965183 -0.102902 4.13427e-09 -6.05111e-09 8.67056e-09 -10.278600000000003 0.731801 -0.0259123 4.13428e-09 -6.05111e-09 8.67056e-09 -2.22167 -0.733487 0.20892000000000002 -2.03217e-16 0.0 -3.88251e-19 -46.7259 -48.029700000000005 -34.363 -3.97794 80.1419 6.221979999999999 0.649696 -24.2332 -3.40755 2.03217e-16 0.0 3.88251e-19 76.6542 -58.22180000000001 59.8045 172.209 83.0958 -174.86 1.51274 -26.2386 7.37781
-15.479499999999998 47.0814 -114.669 -146.889 74.1092 -137.842 4.804410000000001 21.0221 -6.90058 9.515940000000002 -11.901 -0.629527 -7.93235 24.7664 -20.0289 23.6796 -32.3893 -33.6986 -0.0 0.0 0.0 -0.0 0.0 0.0 4.54345e-14 1.1555699999999998e-11 -2.31277e-13 52.7066 23.3814 -2.0568 -26.9081 -44.257299999999994 91.9569 -0.030082 -4.94575 -0.6968270000000001 1.23445e-09 4.06375e-10 -1.72298e-09 2.1320399999999996e-09 7.0233e-10 -2.96829e-09 1.23445e-09 4.0637e-10 -1.7229899999999999e-09 7.730909999999999 5.47488 0.417314 1.23446e-09 4.06371e-10 -1.72298e-09 2.90554 0.965183 0.102902 1.23446e-09 4.0637e-10 -1.72298e-09 10.278600000000003 0.731801 0.0259123 1.23445e-09 4.06373e-10 -1.7229699999999999e-09 2.22167 -0.733487 -0.20892000000000002 4.5491600000000006e-14 1.1555399999999999e-11 -2.31427e-13 -75.2 57.77369999999999 0.0200748 27.3201 -43.0931 -89.6691 1.2660099999999999 -30.192600000000002 4.6905 2.95075e-09 -4.173030000000001e-09 5.684419999999999e-09 4.96861e-09 -7.24816e-09 9.884810000000001e-09 2.95074e-09 -4.173030000000001e-09 5.68444e-09 -7.730909999999999 5.47488 -0.417314 2.95075e-09 -4.173030000000001e-09 5.684419999999999e-09 -2.90554 0.965183 -0.102902 2.95074e-09 -4.173030000000001e-09 5.684419999999999e-09 -10.278600000000003 0.731801 -0.0259123 2.95075e-09 -4.173030000000001e-09 5.684419999999999e-09 -2.22167 -0.733487 0.20892000000000002 -2.03217e-16 0.0 -3.88251e-19 -46.73179999999999 -47.9307 -34.3065 -4.26369 80.76349999999998 6.57804 0.30501999999999996 -24.350099999999998 -4.127409999999999 2.03217e-16 0.0 3.88251e-19 76.88829999999999 -58.3965 59.7785 172.214 83.0582 -174.83100000000002 1.29497 -26.2163 7.00353
-15.4397 46.9567 -114.467 -147.834 73.6965 -138.951 4.98581 21.058 -7.096970000000001 9.56845 -11.9918 -0.662538 -8.02643 24.7779 -20.0292 23.726899999999997 -32.4999 -33.6871 -0.0 0.0 0.0 -0.0 0.0 0.0 5.19387e-14 7.45336e-12 -3.17249e-13 52.9213 23.185199999999995 -2.72825 -26.889700000000005 -44.3043 92.0511 -0.0259024 -4.59116 -0.646642 1.7318e-09 3.63701e-10 -9.93778e-10 2.98478e-09 6.26266e-10 -1.7029500000000002e-09 1.7318e-09 3.6369499999999995e-10 -9.93785e-10 7.730909999999999 5.47488 0.417314 1.7318e-09 3.6369499999999995e-10 -9.93779e-10 2.90554 0.965183 0.102902 1.7318e-09 3.6369499999999995e-10 -9.93777e-10 10.278600000000003 0.731801 0.0259123 1.73179e-09 3.63697e-10 -9.93769e-10 2.22167 -0.733487 -0.20892000000000002 5.205820000000001e-14 7.45336e-12 -3.1741499999999997e-13 -74.1894 57.9264 -0.689711 27.262 -43.273 -90.0153 1.2298599999999997 -29.810899999999997 4.6186 3.21908e-09 -4.85486e-09 6.87827e-09 5.41046e-09 -8.43026e-09 1.19487e-08 3.21907e-09 -4.85486e-09 6.87829e-09 -7.730909999999999 5.47488 -0.417314 3.21908e-09 -4.85486e-09 6.87827e-09 -2.90554 0.965183 -0.102902 3.21907e-09 -4.85486e-09 6.87827e-09 -10.278600000000003 0.731801 -0.0259123 3.21908e-09 -4.85486e-09 6.87826e-09 -2.22167 -0.733487 0.20892000000000002 -2.03217e-16 0.0 -3.88251e-19 -46.7273 -47.801 -34.3091 -4.50602 81.2381 6.88118 -0.00282759 -24.4391 -4.76263 2.03217e-16 0.0 3.88251e-19 77.1399 -58.59300000000002 59.800699999999985 172.18399999999997 83.0521 -174.768 1.09262 -26.1625 6.65716
-15.4116 46.8791 -114.276 -148.257 73.29360000000001 -139.51900000000003 5.20509 21.0971 -7.373760000000001 9.63398 -12.101 -0.712874 -8.14463 24.806100000000004 -20.0307 23.8065 -32.700500000000005 -33.66709999999999 -0.0 0.0 0.0 -0.0 0.0 0.0 2.0728800000000003e-13 1.89498e-11 -3.20932e-13 53.090799999999994 23.0577 -3.34117 -26.8711 -44.351800000000004 92.1462 -0.0223992 -4.270439999999999 -0.601295 3.46808e-09 9.095499999999998e-10 -3.9788099999999994e-09 5.98663e-09 1.5674199999999997e-09 -6.84863e-09 3.46808e-09 9.095499999999998e-10 -3.97882e-09 7.730909999999999 5.47488 0.417314 3.46808e-09 9.09548e-10 -3.9788099999999994e-09 2.90554 0.965183 0.102902 3.46809e-09 9.095490000000001e-10 -3.97882e-09 10.278600000000003 0.731801 0.0259123 3.4680700000000004e-09 9.095499999999998e-10 -3.9788099999999994e-09 2.22167 -0.733487 -0.20892000000000002 2.07314e-13 1.89498e-11 -3.21159e-13 -73.7122 57.740399999999994 -0.8628599999999998 27.1867 -43.4956 -90.4491 1.18077 -29.2759 4.51897 4.93926e-09 -8.09659e-09 1.22521e-08 8.262730000000001e-09 -1.40479e-08 2.12634e-08 4.93926e-09 -8.09659e-09 1.22521e-08 -7.730909999999999 5.47488 -0.417314 4.93926e-09 -8.09659e-09 1.22521e-08 -2.90554 0.965183 -0.102902 4.93926e-09 -8.09659e-09 1.22521e-08 -10.278600000000003 0.731801 -0.0259123 4.93927e-09 -8.09659e-09 1.22521e-08 -2.22167 -0.733487 0.20892000000000002 -2.03217e-16 0.0 -3.88251e-19 -46.7119 -47.6409 -34.3705 -4.68005 81.5661 7.10647 -0.2723960000000001 -24.5012 -5.31262 2.03217e-16 0.0 3.88251e-19 77.41 -58.8113 59.8724 172.11800000000002 83.0775 -174.672 0.90623 -26.077600000000004 6.33896
